<svg xmlns="http://www.w3.org/2000/svg" viewBox="0 0 64 64" width="64" height="64">
  <!-- Dark background pill -->
  <rect width="64" height="64" rx="14" fill="#0B0B0A"/>

  <!-- Green gem, centred at (20, 32), radius ~13 -->
  <polygon points="20,32 12.7,19.5 27.3,19.5" fill="#2D6A4F" opacity="1.0"/>
  <polygon points="20,32 27.3,19.5 34,32"     fill="#2D6A4F" opacity="0.72"/>
  <polygon points="20,32 34,32 27.3,44.5"     fill="#2D6A4F" opacity="0.45"/>
  <polygon points="20,32 27.3,44.5 12.7,44.5" fill="#2D6A4F" opacity="0.28"/>
  <polygon points="20,32 12.7,44.5 6,32"      fill="#2D6A4F" opacity="0.18"/>
  <polygon points="20,32 6,32 12.7,19.5"      fill="#2D6A4F" opacity="0.55"/>

  <!-- Gold gem, centred at (44, 32), radius ~13 -->
  <polygon points="44,32 36.7,19.5 51.3,19.5" fill="#C49B1E" opacity="1.0"/>
  <polygon points="44,32 51.3,19.5 58,32"     fill="#C49B1E" opacity="0.72"/>
  <polygon points="44,32 58,32 51.3,44.5"     fill="#C49B1E" opacity="0.45"/>
  <polygon points="44,32 51.3,44.5 36.7,44.5" fill="#C49B1E" opacity="0.28"/>
  <polygon points="44,32 36.7,44.5 30,32"     fill="#C49B1E" opacity="0.18"/>
  <polygon points="44,32 30,32 36.7,19.5"     fill="#C49B1E" opacity="0.55"/>
</svg>
